<?xml version="1.0" ?><svg id="Layer_3" style="enable-background:new 0 0 64 64;" version="1.1" viewBox="0 0 64 64" xml:space="preserve" xmlns="http://www.w3.org/2000/svg" xmlns:xlink="http://www.w3.org/1999/xlink"><g><path d="M8,25h35c0.553,0,1-0.448,1-1V6c0-0.552-0.447-1-1-1H8C7.447,5,7,5.448,7,6v18C7,24.552,7.447,25,8,25z M9,7h33v16H9V7z"/><rect height="2" width="16" x="18" y="29"/><rect height="2" width="24" x="14" y="33"/><rect height="2" width="24" x="14" y="37"/><rect height="2" width="24" x="14" y="41"/><path d="M37,9h-5v2h2.414l-8.273,7.521L20.8,11.4c-0.377-0.504-1.223-0.504-1.6,0l-6,8l1.6,1.2l5.2-6.934l5.2,6.934   c0.169,0.225,0.425,0.369,0.705,0.396C25.937,20.999,25.969,21,26,21c0.248,0,0.488-0.092,0.673-0.26L36,12.26V15h2v-5   C38,9.448,37.553,9,37,9z"/><path d="M62,28h-4V9h1v6h2V8V5h-2v2h-1c0-0.107-0.018-0.214-0.052-0.316l-1-3C56.812,3.275,56.431,3,56,3V1h-2v2   c-0.431,0-0.812,0.275-0.948,0.684l-1,3C52.018,6.786,52,6.893,52,7v21h-2V2c0-0.552-0.447-1-1-1H2C1.447,1,1,1.448,1,2v60   c0,0.553,0.447,1,1,1h47c0.553,0,1-0.447,1-1v-3h12c0.553,0,1-0.447,1-1V29C63,28.448,62.553,28,62,28z M54,15h2v14.764l-1,2l-1-2   V15z M54.721,5h0.559L56,7.162V13h-2V7.162L54.721,5z M48,61H3V3h45v25h-4c-0.553,0-1,0.448-1,1v22H7c-0.553,0-1,0.447-1,1v6   c0,0.553,0.447,1,1,1h37h4V61z M43,57H8v-4h35V57z M61,57H45V30h7c0,0.155,0.036,0.309,0.105,0.447l2,4   C54.275,34.786,54.621,35,55,35s0.725-0.214,0.895-0.553l2-4C57.964,30.309,58,30.155,58,30h3V57z"/><rect height="2" width="12" x="47" y="37"/><rect height="2" width="8" x="49" y="41"/><rect height="2" width="12" x="47" y="45"/><rect height="2" width="12" x="47" y="53"/><rect height="2" width="8" x="49" y="49"/></g></svg>