<?xml version="1.0" encoding="utf-8"?>
<!-- Generator: Adobe Illustrator 16.0.0, SVG Export Plug-In . SVG Version: 6.00 Build 0)  -->
<!DOCTYPE svg PUBLIC "-//W3C//DTD SVG 1.1//EN" "http://www.w3.org/Graphics/SVG/1.1/DTD/svg11.dtd">
<svg version="1.1" id="Layer_1" xmlns="http://www.w3.org/2000/svg" xmlns:xlink="http://www.w3.org/1999/xlink" x="0px" y="0px"
	 width="24px" height="24px" viewBox="0 0 24 24" enable-background="new 0 0 24 24" xml:space="preserve">
<g>
	<g>
		<circle cx="12" cy="15.16" r="0.234"/>
		<path d="M12.002,11.507c1.532,0,2.497-2.25,2.55-4.4c-0.139-0.06-0.396-0.711-0.438-0.873c-0.058-0.227-0.465-0.929-0.465-0.929
			s-0.162,1.157-0.272,1.042c-0.109-0.114-0.205-0.24-0.281-0.376c-0.167,0.162-0.37,0.34-0.612,0.516
			c-0.231,0.169-0.429,0.416-1.907,0.867l0.302-1.125c0,0-1.012,1.299-1.403,1.322C9.639,9.556,10.573,11.507,12.002,11.507z"/>
		<circle cx="12" cy="16.452" r="0.234"/>
		<path d="M16.283,13.136l-1.472-0.538l-1.382,2.8L12,13.934V18l0,0v-4.081l-1.441,1.478l-1.267-2.799l-1.519,0.537
			c-0.188,0.091-2.08,1.042-2.662,3.334c0.456,0.566,0.963,1.076,1.541,1.515c-0.027-0.75-0.049-1.741,0.01-2.644l0.721,0.047
			c-0.072,1.102-0.03,2.368,0.007,3.11c1.345,0.82,2.923,1.293,4.611,1.293c1.692,0,3.271-0.474,4.616-1.295
			c0.034-0.755,0.072-2.044-0.004-3.13l0.724-0.051c0.063,0.897,0.053,1.905,0.027,2.669c0.577-0.439,1.099-0.948,1.553-1.514
			C18.337,14.181,16.479,13.229,16.283,13.136z"/>
		<path d="M12,0C5.373,0,0,5.373,0,12s5.373,12,12,12s12-5.373,12-12S18.627,0,12,0z M8.484,8c0,0-0.722-4.767,3.416-4.767
			c2.309,0,4.081,1.45,3.501,4.229c0.248,0.385,0.5,1.131-0.569,2.209c-0.529,1.497-1.508,2.591-2.83,2.591
			c-1.374,0-2.34-0.921-2.853-2.42C8.253,8.926,8.309,8,8.498,8C8.493,8,8.489,8,8.484,8z M19.084,18.087
			c-0.19,0.189-0.39,0.37-0.595,0.543c-0.404,0.34-0.835,0.651-1.289,0.925c-0.259,0.157-0.525,0.302-0.8,0.435
			c-0.27,0.145-0.566,0.271-0.883,0.377C14.423,20.776,13.238,21,12,21c-1.079,0-2.118-0.172-3.094-0.486
			c-0.517-0.146-0.976-0.332-1.362-0.553c-0.253-0.125-0.502-0.26-0.742-0.405c-0.456-0.274-0.887-0.585-1.289-0.925
			c-0.207-0.173-0.406-0.354-0.597-0.543c-0.247-0.244-0.483-0.501-0.703-0.77c0.05-0.583,0.173-1.108,0.345-1.577
			c0.844-2.306,2.842-3.257,2.868-3.27l0.026-0.011l2.131-0.784l0.958,2.419L11.52,13h0.949l0.979,1.096l0.958-2.372l2.171,0.771
			c0.026,0.012,2.023,0.952,2.867,3.257c0.171,0.469,0.294,0.987,0.346,1.571C19.567,17.592,19.332,17.843,19.084,18.087z"/>
	</g>
</g>
</svg>
