<?xml version="1.0" encoding="iso-8859-1"?>
<!-- Generator: Adobe Illustrator 16.0.0, SVG Export Plug-In . SVG Version: 6.00 Build 0)  -->
<!DOCTYPE svg PUBLIC "-//W3C//DTD SVG 1.1//EN" "http://www.w3.org/Graphics/SVG/1.1/DTD/svg11.dtd">
<svg version="1.1" id="Capa_1" xmlns="http://www.w3.org/2000/svg" xmlns:xlink="http://www.w3.org/1999/xlink" x="0px" y="0px"
	 width="612px" height="612px" viewBox="0 0 612 612" style="enable-background:new 0 0 612 612;" xml:space="preserve">
<g>
	<g id="_x38__19_">
		<g>
			<path d="M569.811,137.206H316.674c-23.309,0-42.189,18.88-42.189,42.189s18.88,42.189,42.189,42.189h253.137
				c23.289,0,42.189-18.88,42.189-42.189S593.12,137.206,569.811,137.206z M316.674,95.017h253.137
				C593.1,95.017,612,76.137,612,52.827c0-23.289-18.9-42.189-42.189-42.189H316.674c-23.309,0-42.189,18.901-42.189,42.189
				C274.485,76.137,293.386,95.017,316.674,95.017z M569.811,516.911H316.674c-23.309,0-42.189,18.88-42.189,42.189
				s18.88,42.189,42.189,42.189h253.137c23.289,0,42.189-18.901,42.189-42.189C612,535.812,593.12,516.911,569.811,516.911z
				 M331.166,396.734c-8.27-8.312-14.492-6.392-14.492-6.392H190.106V10.638h-42.189v379.705H21.348c0,0-6.876-1.92-15.146,6.392
				c-8.269,8.312-8.269,21.77,0,30.06l146.44,168.526c4.409,4.43,10.273,6.307,16.032,6.012c5.78,0.295,11.623-1.582,16.032-6.012
				l146.438-168.526C339.436,418.504,339.436,405.046,331.166,396.734z M569.811,263.774H316.674
				c-23.309,0-42.189,18.879-42.189,42.189c0,23.31,18.88,42.189,42.189,42.189h253.137c23.289,0,42.189-18.88,42.189-42.189
				C612,282.654,593.12,263.774,569.811,263.774z M569.811,390.343H443.242c-23.31,0-42.189,18.88-42.189,42.189
				c0,23.288,18.88,42.189,42.189,42.189h126.568c23.289,0,42.189-18.88,42.189-42.189S593.12,390.343,569.811,390.343z"/>
		</g>
	</g>
</g>
<g>
</g>
<g>
</g>
<g>
</g>
<g>
</g>
<g>
</g>
<g>
</g>
<g>
</g>
<g>
</g>
<g>
</g>
<g>
</g>
<g>
</g>
<g>
</g>
<g>
</g>
<g>
</g>
<g>
</g>
</svg>
