<?xml version="1.0" ?><svg enable-background="new 0 0 32 32" version="1.1" viewBox="0 0 32 32" xml:space="preserve" xmlns="http://www.w3.org/2000/svg" xmlns:xlink="http://www.w3.org/1999/xlink"><g id="Outline_copy_2"><g><path d="M0.503,31.728c10.352,0,20.704,0,31.056,0c0.589,0,0.588-0.4-0.006-0.4c-9.033,0-18.066,0-27.099,0    c-0.875,0-2.522,0.314-3.522,0.101c0-0.057-0.023-0.186,0.067-0.4c0.205-0.486,0-1.526,0-2.044c0-5.314,0-10.628,0-15.942    C1,8.855,1,4.666,1,0.478c0-0.279-1-0.274-1,0.015C0,10.84,0,21.188,0,31.535C0,31.717,0.404,31.728,0.503,31.728z"/><path d="M2.751,21.532c-0.012,2.953,4.91,2.957,5.068,0.022c-0.032-0.589-0.262-1.055-0.6-1.411    c1.393-1.221,2.786-2.441,4.178-3.662c0.96,0.603,2.336,0.611,3.189-0.074c0.682,0.696,1.364,1.392,2.046,2.089    c0.037,0.038,0.1,0.06,0.171,0.076c-0.536,0.38-0.909,0.965-0.912,1.762c-0.013,3.009,4.906,2.764,5.061-0.118    c-0.029-0.531-0.212-0.957-0.487-1.29c1.828-2.117,3.655-4.234,5.483-6.351c0.006-0.007,0.002-0.015,0.005-0.023    c1.417,0.437,3.198-0.138,3.296-1.952c-0.153-2.838-5.011-3.33-5.035-0.255c-0.007,0.864,0.433,1.501,1.052,1.894    c-0.112,0.003-0.206,0.028-0.255,0.085c-1.743,2.019-3.485,4.037-5.228,6.056c-0.693-0.363-1.577-0.412-2.329-0.15    c-0.788-0.804-1.575-1.608-2.363-2.412c0.148-0.273,0.241-0.597,0.262-0.975c0.001-0.012-0.009-0.022-0.01-0.033    c0.001-0.009,0.009-0.013,0.008-0.023c-0.152-2.82-5.024-3.273-5.024-0.199c0,0.594,0.218,1.077,0.553,1.453    c-0.115-0.001-0.215,0.018-0.273,0.069c-1.347,1.181-2.695,2.361-4.042,3.542C5.064,18.892,2.76,19.495,2.751,21.532z     M26.133,8.919c1.118-0.658,2.089,0.318,2.149,1.428c-0.04,0.742-0.393,1.453-1.102,1.773c-1.058,0.477-1.994-0.481-1.999-1.517    C25.177,9.915,25.542,9.266,26.133,8.919z M18.629,18.516c0.84,0.172,1.288,1.034,1.33,1.82c-0.051,0.951-0.837,2.14-1.961,1.642    c-0.68-0.301-1.12-1.023-1.114-1.761C16.89,19.29,17.624,18.31,18.629,18.516z M12.419,13.063c1.132-0.487,1.898,0.49,1.97,1.518    c-0.042,0.693-0.346,1.335-0.972,1.691c-1.107,0.628-2.126-0.336-2.123-1.455C11.296,14.071,11.725,13.362,12.419,13.063z     M4.892,19.817c0.495-0.175,0.914-0.037,1.237,0.244c-0.008,0.05,0.055,0.106,0.163,0.155c0.311,0.357,0.502,0.858,0.527,1.316    c-0.039,0.719-0.5,1.735-1.346,1.82c-1.001,0.101-1.722-0.883-1.722-1.797C3.751,20.825,4.186,20.066,4.892,19.817z"/></g></g></svg>