<?xml version="1.0" ?><svg enable-background="new 0 0 32 32" version="1.1" viewBox="0 0 32 32" xml:space="preserve" xmlns="http://www.w3.org/2000/svg" xmlns:xlink="http://www.w3.org/1999/xlink"><g id="Outline_copy_2"><g><path d="M26.445,29.082c-7.251,0-14.502,0-21.752,0c-0.061,0-0.275,0.022-0.275,0.124c0,0.829,0,1.657,0,2.486    C4.418,31.958,4.95,32,5.126,32c7.271,0,14.541,0,21.812,0c0.061,0,0.275-0.022,0.275-0.124c0-0.829,0-1.657,0-2.486    C27.213,29.171,26.734,29.052,26.445,29.082z M24.889,31.568c-2.521,0-5.041,0-7.562,0c-3.975,0-7.949,0-11.924,0    c0.008-0.728,0.015-2.236-0.219-2.053c0.231-0.18,1.269,0,1.557,0c2.521,0,5.041,0,7.562,0c3.975,0,7.949,0,11.924,0    c-0.008,0.728-0.015,2.236,0.219,2.053C26.216,31.748,25.178,31.568,24.889,31.568z"/><path d="M4.215,14.338c0.764,0,1.529,0,2.293,0c0,3.876,0,7.751,0,11.627c0,0.302,0.554,0.387,0.774,0.387    c6.012,0,12.023,0,18.035,0c0.034,0,0.182-0.028,0.182-0.092c0-2.719,0-5.437,0-8.156c0-0.747-0.393-2.961,0-3.634    c0.167-0.286,2.029-0.132,2.885-0.132c0.117,0,0.248-0.091,0.146-0.208c-4.028-4.614-8.056-9.228-12.085-13.842    c-0.004-0.005-0.014-0.009-0.019-0.014c-0.168-0.195-0.727-0.372-0.868-0.21C11.53,4.677,7.502,9.291,3.474,13.905    C3.241,14.172,4.087,14.338,4.215,14.338z M27.051,13.386c0.11,0.104,0.387,0.353,0.447,0.507    c-0.602,0.257-2.148-0.034-2.773-0.034c-0.033,0-0.182,0.028-0.182,0.092c0,2.719,0,5.437,0,8.156c0,0.86,0.396,2.857,0,3.634    c-0.026,0.051-0.039,0.087-0.043,0.113c-0.017,0.007-0.026,0.009-0.047,0.019c-0.252,0.118-0.897,0-1.159,0    c-5.277,0-10.553,0-15.83,0c0-3.876,0-7.751,0-11.627c0-0.302-0.554-0.387-0.774-0.387c-0.649,0-1.299,0-1.948,0    c3.787-4.338,7.574-8.675,11.361-13.013c2.315,2.651,4.63,5.303,6.944,7.954C24.359,10.303,25.597,12.018,27.051,13.386z"/><path d="M14.314,16.468c0.393-0.518,0.59-1.283,0.59-2.296c0-0.973-0.201-1.724-0.602-2.252c-0.401-0.529-0.974-0.793-1.72-0.793    c-0.751,0-1.317,0.255-1.7,0.766s-0.575,1.271-0.575,2.279c0,0.991,0.199,1.75,0.598,2.279c0.398,0.529,0.958,0.793,1.677,0.793    C13.344,17.244,13.921,16.985,14.314,16.468z M11.657,15.871c-0.19-0.378-0.285-0.944-0.285-1.699    c0-0.755,0.095-1.319,0.285-1.693c0.19-0.373,0.499-0.56,0.925-0.56c0.843,0,1.265,0.751,1.265,2.252    c0,1.51-0.422,2.266-1.265,2.266C12.156,16.438,11.847,16.249,11.657,15.871z"/><path d="M17.676,15.798c-0.383,0.511-0.573,1.271-0.573,2.279c0,0.986,0.195,1.744,0.589,2.272    c0.393,0.529,0.956,0.793,1.686,0.793c0.761,0,1.337-0.259,1.73-0.776c0.393-0.518,0.591-1.281,0.591-2.289    c0-0.986-0.206-1.74-0.614-2.262c-0.409-0.522-0.977-0.783-1.707-0.783C18.627,15.032,18.059,15.287,17.676,15.798z     M20.333,16.388c0.206,0.366,0.308,0.93,0.308,1.689c0,0.769-0.103,1.338-0.308,1.709c-0.206,0.371-0.524,0.556-0.956,0.556    s-0.743-0.188-0.933-0.563c-0.19-0.375-0.285-0.943-0.285-1.703s0.095-1.323,0.285-1.689c0.19-0.367,0.501-0.55,0.933-0.55    S20.128,16.021,20.333,16.388z"/><polygon points="12.32,21.009 13.454,21.009 19.709,11.267 18.575,11.267   "/></g></g></svg>