<svg height="480pt" viewBox="0 -4 480 480" width="480pt" xmlns="http://www.w3.org/2000/svg"><path d="m312 192c-26.507812 0-48 21.492188-48 48s21.492188 48 48 48 48-21.492188 48-48c-.027344-26.5-21.5-47.972656-48-48zm0 80c-17.671875 0-32-14.328125-32-32s14.328125-32 32-32 32 14.328125 32 32-14.328125 32-32 32zm0 0"/><path d="m441.601562 199.367188c-12.574218-2.5625-22.402343-12.394532-24.960937-24.96875-.761719-3.722657-4.039063-6.398438-7.839844-6.398438h-32.800781v16h26.734375c4.816406 13.683594 15.582031 24.449219 29.265625 29.265625v53.46875c-13.683594 4.816406-24.449219 15.582031-29.265625 29.265625h-26.734375v16h32.800781c3.800781 0 7.078125-2.675781 7.839844-6.398438 2.558594-12.574218 12.386719-22.40625 24.960937-24.96875 3.722657-.761718 6.394532-4.035156 6.398438-7.832031v-65.601562c-.003906-3.796875-2.675781-7.070313-6.398438-7.832031zm0 0"/><path d="m456 136h-136v-96c-.027344-22.082031-17.917969-39.9726562-40-40h-240c-22.082031.0273438-39.9726562 17.917969-40 40v392c.0273438 22.082031 17.917969 39.972656 40 40h240c22.082031-.027344 39.972656-17.917969 40-40v-88h136c13.253906 0 24-10.746094 24-24v-160c0-13.253906-10.746094-24-24-24zm-152 296c0 13.253906-10.746094 24-24 24h-240c-13.253906 0-24-10.746094-24-24v-392c0-13.253906 10.746094-24 24-24h240c13.253906 0 24 10.746094 24 24v96h-80v-16h-16v240h16v-16h80zm160-112c0 4.417969-3.582031 8-8 8h-232v-176h232c4.417969 0 8 3.582031 8 8zm0 0"/><path d="m120 328h-64c-4.417969 0-8 3.582031-8 8v80c0 4.417969 3.582031 8 8 8h64c4.417969 0 8-3.582031 8-8v-80c0-4.417969-3.582031-8-8-8zm-8 56h-24v-40h24zm-40-40v40h-8v-40zm-8 64v-8h48v8zm0 0"/><path d="m88 40c-14.308594-.046875-27.542969 7.578125-34.679688 19.976562-7.136718 12.398438-7.085937 27.671876.136719 40.023438-9.8125 16.804688-6.105469 38.234375 8.78125 50.765625 14.886719 12.535156 36.636719 12.535156 51.523438 0 14.886719-12.53125 18.59375-33.960937 8.78125-50.765625 7.222656-12.351562 7.273437-27.625.136719-40.023438-7.136719-12.398437-20.371094-20.023437-34.679688-19.976562zm0 16c7.648438-.019531 14.847656 3.617188 19.371094 9.785156 4.523437 6.167969 5.832031 14.125 3.515625 21.414063-.199219-.144531-.414063-.230469-.613281-.367188-1.285157-.878906-2.621094-1.679687-4-2.398437-.234376-.121094-.449219-.257813-.6875-.378906-1.617188-.777344-3.28125-1.445313-4.984376-2-.480468-.152344-.960937-.269532-1.441406-.40625-1.316406-.386719-2.652344-.699219-4-.9375-.527344-.09375-1.046875-.191407-1.601562-.269532-3.664063-.554687-7.390625-.554687-11.054688 0-.535156.078125-1.054687.175782-1.601562.269532-1.347656.238281-2.683594.550781-4 .9375-.476563.136718-.957032.253906-1.429688.40625-1.710937.554687-3.382812 1.222656-5 2-.234375.113281-.441406.257812-.671875.378906-1.394531.714844-2.742187 1.519531-4.039062 2.398437-.195313.128907-.417969.222657-.617188.367188-2.3125-7.285157-1.011719-15.234375 3.507813-21.402344 4.515625-6.164063 11.703125-9.804687 19.347656-9.796875zm0 88c-9.230469-.007812-17.636719-5.308594-21.625-13.628906-3.988281-8.324219-2.847656-18.199219 2.929688-25.394532 4.523437-5.703124 11.417968-9.011718 18.695312-8.976562 1.8125 0 3.617188.203125 5.382812.601562 3.476563.785157 6.726563 2.347657 9.511719 4.566407 1.40625 1.125 2.679688 2.402343 3.800781 3.808593 5.777344 7.195313 6.917969 17.070313 2.929688 25.394532-3.988281 8.320312-12.394531 13.621094-21.625 13.628906zm0 0"/><path d="m160 352h16v16h-16zm0 0"/><path d="m160 320h16v16h-16zm0 0"/><path d="m160 288h16v16h-16zm0 0"/><path d="m160 256h16v16h-16zm0 0"/><path d="m160 224h16v16h-16zm0 0"/><path d="m160 192h16v16h-16zm0 0"/><path d="m160 160h16v16h-16zm0 0"/><path d="m160 128h16v16h-16zm0 0"/></svg>