<?xml version="1.0" ?><!DOCTYPE svg  PUBLIC '-//W3C//DTD SVG 1.1//EN'  'http://www.w3.org/Graphics/SVG/1.1/DTD/svg11.dtd'><svg height="132px" style="enable-background:new 0 0 139 132;" version="1.1" viewBox="0 0 139 132" width="139px" xml:space="preserve" xmlns="http://www.w3.org/2000/svg" xmlns:xlink="http://www.w3.org/1999/xlink"><style type="text/css">
<![CDATA[
	.st0{fill:#EF3E42;}
	.st1{fill:#FFFFFF;}
	.st2{fill:none;}
	.st3{fill-rule:evenodd;clip-rule:evenodd;fill:#FFFFFF;}
]]>
</style><defs/><path d="M117.5,70.4l7.9-0.1l-8.5,8.8l-3.6,3.7l-2.8-2.7l-9.7-9.4l10.5-0.2c-0.2-12.2-5-24.2-14.5-33.3C78.1,19,48,19.6,29.8,38.4  c-4.7,4.9-8.2,10.5-10.4,16.5l-5.8-2c2.5-6.8,6.4-13.2,11.7-18.8c20.5-21.3,54.5-21.9,75.8-1.3C111.8,43.1,117.3,56.7,117.5,70.4  L117.5,70.4z M114.3,89.8c-2.5,6.8-6.4,13.3-11.8,18.8C82,129.9,48,130.5,26.7,109.9C16.1,99.7,10.6,86,10.4,72.3l-7.8,0.1l8.3-8.6  l3.7-3.9l2.7,2.6l9.8,9.5l-10.6,0.2c0.2,12.2,5,24.2,14.5,33.3c18.8,18.2,48.9,17.7,67.1-1.2c4.7-4.9,8.2-10.6,10.4-16.6L114.3,89.8  L114.3,89.8z M64,57c-5.4,0-9.7-4.4-9.7-9.7c0-5.4,4.4-9.7,9.7-9.7c5.4,0,9.7,4.4,9.7,9.7C73.8,52.7,69.4,57,64,57L64,57z   M75.4,59.1C83,59.1,88,65.4,88,71.9v23c0,5.9-7.6,5.9-7.6,0V72.5h-3.6v28.3H51.3l0-28.3h-3.7v22.4c0,5.8-7.7,5.8-7.7,0V71.7  c0-7,5.5-12.6,12.4-12.6L75.4,59.1L75.4,59.1z"/><rect class="st2" height="132" id="_x3C_Slice_x3E__100_" width="139"/></svg>