<?xml version="1.0" ?><svg data-name="Layer 1" id="Layer_1" viewBox="0 0 512 512" xmlns="http://www.w3.org/2000/svg"><path d="M484.66,42.55a11.91,11.91,0,0,0-10.93-7.32H384.62a11.85,11.85,0,0,0,0,23.7h60.5L308.55,195.51l-75.33-75.33a11.85,11.85,0,0,0-16.76,0L29.89,306.75a11.85,11.85,0,0,0,16.76,16.76L224.84,145.32l75.33,75.32a11.85,11.85,0,0,0,16.76,0l145-144.95v60.5a11.85,11.85,0,1,0,23.7,0V47.08A11.87,11.87,0,0,0,484.66,42.55Z"/><polygon points="292.21 321.35 292.21 476.77 342.99 476.77 342.99 303.25 308.55 337.69 292.21 321.35"/><polygon points="358.79 476.77 409.55 476.77 409.55 236.68 358.79 287.44 358.79 476.77"/><polygon points="159.06 476.77 209.82 476.77 209.82 269 159.06 319.76 159.06 476.77"/><path d="M425.35,476.77h48.38V172.5l-48.38,48.38Z"/><polygon points="38.28 476.77 76.68 476.77 76.68 402.15 38.28 440.55 38.28 476.77"/><polygon points="92.48 476.77 143.26 476.77 143.26 335.56 92.48 386.35 92.48 476.77"/><polygon points="225.63 476.77 276.41 476.77 276.41 305.55 225.63 254.76 225.63 476.77"/></svg>