<?xml version="1.0" ?><!DOCTYPE svg  PUBLIC '-//W3C//DTD SVG 1.1//EN'  'http://www.w3.org/Graphics/SVG/1.1/DTD/svg11.dtd'><svg enable-background="new 0 0 100 100" height="100px" id="Calque_2" version="1.1" viewBox="0 0 100 100" width="100px" xml:space="preserve" xmlns="http://www.w3.org/2000/svg" xmlns:xlink="http://www.w3.org/1999/xlink"><g><path d="M2.04,9.75v6.35h3.29v57.37h43.88v8.011c-2.06,0.38-3.63,2.18-3.63,4.35c0,2.439,1.98,4.42,4.42,4.42   c2.44,0,4.42-1.98,4.42-4.42c0-2.17-1.57-3.97-3.63-4.35V73.47h43.88V16.1h3.29V9.75H2.04z M93.08,71.88H6.92V16.1h86.16V71.88z"/><rect height="12.78" width="11.26" x="11.87" y="55.25"/><rect height="15.95" width="11.26" x="24.87" y="52.08"/><rect height="24.83" width="11.26" x="37.87" y="43.2"/><rect height="26.68" width="11.26" x="50.87" y="41.35"/><rect height="34.4" width="11.26" x="63.87" y="33.63"/><rect height="46.04" width="11.26" x="76.87" y="21.99"/><polygon points="22.192,44.888 56.195,29.123 53.725,35.863 55.217,36.409 58.619,27.125 49.334,23.722 48.788,25.212    55.527,27.683 21.524,43.447  "/></g></svg>