<?xml version="1.0" ?><svg viewBox="0 0 32 32" xmlns="http://www.w3.org/2000/svg"><title/><g data-name="Layer 8" id="Layer_8"><path d="M29.49,16.09a.41.41,0,0,0,0-.27.48.48,0,0,0,0-.1v0C25.83,10.82,21.07,8.13,16,8.13S6.17,10.82,2.6,15.71v0a.49.49,0,0,0,0,.09.41.41,0,0,0,0,.36.49.49,0,0,0,0,.09v0c3.57,4.89,8.33,7.58,13.4,7.58s9.83-2.69,13.4-7.58v0a.48.48,0,0,0,0-.1A.5.5,0,0,0,29.49,16.09ZM16,22.88c-4.64,0-9-2.44-12.37-6.87C7,11.57,11.36,9.13,16,9.13S25,11.57,28.37,16C25,20.43,20.64,22.88,16,22.88Z"/><path d="M16,11.81A4.19,4.19,0,1,0,20.19,16,4.19,4.19,0,0,0,16,11.81Zm0,7.37A3.19,3.19,0,1,1,19.19,16,3.19,3.19,0,0,1,16,19.19Z"/></g></svg>