<?xml version="1.0" ?><svg viewBox="0 0 32 32" xmlns="http://www.w3.org/2000/svg"><title/><g data-name="Layer 7" id="Layer_7"><path d="M28.92,16.72a.54.54,0,0,0,0-.28l0-.09,0-.06A17.89,17.89,0,0,0,22,11.39L26.46,7a.56.56,0,1,0-.79-.79L20.87,11A16,16,0,0,0,16,10.2,16.91,16.91,0,0,0,3.18,16.3l0,.06,0,.09a.54.54,0,0,0,0,.37l0,.09,0,.06A17.89,17.89,0,0,0,10,21.86L5.54,26.3a.56.56,0,1,0,.79.79l4.8-4.8a16,16,0,0,0,4.87.77A16.91,16.91,0,0,0,28.82,17l0-.06,0-.09A.48.48,0,0,0,28.92,16.72ZM4.25,16.63A15.84,15.84,0,0,1,16,11.2a15,15,0,0,1,4.06.58l-9.32,9.32A16.72,16.72,0,0,1,4.25,16.63ZM16,22.06a15,15,0,0,1-4.06-.58l9.32-9.32a16.72,16.72,0,0,1,6.49,4.47A15.84,15.84,0,0,1,16,22.06Z"/><path d="M16,13.1a3.53,3.53,0,0,0-3.52,3.52A3.49,3.49,0,0,0,13,18.49l.82-.82a2.38,2.38,0,0,1-.25-1A2.41,2.41,0,0,1,16,14.22a2.38,2.38,0,0,1,1,.25l.82-.82A3.49,3.49,0,0,0,16,13.1Z"/><path d="M18.16,15.58a2.38,2.38,0,0,1,.25,1A2.41,2.41,0,0,1,16,19a2.38,2.38,0,0,1-1-.25l-.82.82a3.49,3.49,0,0,0,1.87.55,3.53,3.53,0,0,0,3.52-3.52A3.49,3.49,0,0,0,19,14.76Z"/></g></svg>