<?xml version="1.0" ?><svg viewBox="0 0 64 64" xmlns="http://www.w3.org/2000/svg"><defs><style>.cls-1{fill:none;stroke:#000;stroke-linejoin:round;stroke-width:2px;}</style></defs><title/><g data-name="Layer 14" id="Layer_14"><rect class="cls-1" height="4" width="60" x="2" y="58"/><polyline class="cls-1" points="60 58 60 2 36 2 36 58"/><rect class="cls-1" height="6" width="6" x="40" y="6"/><rect class="cls-1" height="6" width="6" x="50" y="6"/><rect class="cls-1" height="6" width="6" x="40" y="16"/><rect class="cls-1" height="6" width="6" x="50" y="16"/><rect class="cls-1" height="6" width="6" x="40" y="26"/><rect class="cls-1" height="6" width="6" x="50" y="26"/><rect class="cls-1" height="6" width="6" x="16" y="30"/><rect class="cls-1" height="6" width="6" x="26" y="30"/><rect class="cls-1" height="6" width="6" x="16" y="40"/><rect class="cls-1" height="6" width="6" x="26" y="40"/><rect class="cls-1" height="6" width="6" x="40" y="36"/><rect class="cls-1" height="6" width="6" x="50" y="36"/><line class="cls-1" x1="36" x2="60" y1="46" y2="46"/><path class="cls-1" d="M44,58V54a4,4,0,0,1,4-4h0a4,4,0,0,1,4,4v4"/><path class="cls-1" d="M20,58V54a4,4,0,0,1,4-4h0a4,4,0,0,1,4,4v4"/><line class="cls-1" x1="12" x2="12" y1="25.716" y2="58"/><line class="cls-1" x1="36" x2="24" y1="20" y2="20"/><path class="cls-1" d="M17,11h0a3,3,0,0,0-3-3h0a3,3,0,0,0-3,3h0a3,3,0,0,0,3,3h0a3,3,0,0,1,3,3h0a3,3,0,0,1-3,3h0a3,3,0,0,1-3-3h0"/><line class="cls-1" x1="14" x2="14" y1="8" y2="5"/><line class="cls-1" x1="14" x2="14" y1="20" y2="23"/><circle class="cls-1" cx="14" cy="14" r="12"/><line class="cls-1" x1="36" x2="20.635" y1="24" y2="24"/></g></svg>